<?xml version="1.0" encoding="UTF-8"?>
<!DOCTYPE svg
PUBLIC "-//W3C//DTD SVG 1.1//EN"
       "http://www.w3.org/Graphics/SVG/1.1/DTD/svg11.dtd">
<svg xmlns:xlink="http://www.w3.org/1999/xlink" xmlns:ibooks="http://www.apple.com/2011/iBooks" width="0" height="0" xmlns="http://www.w3.org/2000/svg"><defs id="SVG_DEFS"><clipPath id="ClipPath-2"><path transform="matrix(1,0,0,1,0,0)" d="M 800 0 L 0 0 L 0 1280 L 800 1280 Z"/></clipPath><pattern id="SVG_DEF_1" width="100%" height="100%" ibooks:tintColor="rgba(255,249,232,0.310000)" ibooks:fillTechnique="tile"><image width="1536px" height="1988px" xlink:href="../images/Light-parchment-paper_a.jpg"/></pattern><pattern id="SVG_DEF_2" width="100%" height="100%" ibooks:fillTechnique="tile"><image width="1536px" height="1988px" xlink:href="../images/Light-parchment-paper_a.jpg"/></pattern><marker id="SVG_DEF_3" ibooks:markerId="filled arrow" markerUnits="strokeWidth" refX="3.000" refY="1.500" viewBox="0.000 0.000 6.000 6.000" preserveAspectRatio="none" markerWidth="6.000" markerHeight="6.000"><path d="M 0 0 L 3 6 L 6 0 L 3 1.5 Z"/></marker><marker id="SVG_DEF_4" ibooks:markerId="filled arrow" markerUnits="strokeWidth" refX="3.000" refY="1.500" viewBox="0.000 0.000 6.000 6.000" preserveAspectRatio="none" markerWidth="6.000" markerHeight="6.000"><path d="M 0 0 L 3 6 L 6 0 L 3 1.5 Z"/></marker><marker id="SVG_DEF_5" ibooks:markerId="filled arrow" markerUnits="strokeWidth" refX="3.000" refY="1.500" viewBox="0.000 0.000 6.000 6.000" preserveAspectRatio="none" markerWidth="6.000" markerHeight="6.000"><path d="M 0 0 L 3 6 L 6 0 L 3 1.5 Z"/></marker><marker id="SVG_DEF_6" ibooks:markerId="filled arrow" markerUnits="strokeWidth" refX="3.000" refY="1.500" viewBox="0.000 0.000 6.000 6.000" preserveAspectRatio="none" markerWidth="6.000" markerHeight="6.000"><path d="M 0 0 L 3 6 L 6 0 L 3 1.5 Z"/></marker><clipPath id="ClipPath-3"><path transform="matrix(1,0,0,1,0,0)" d="M 1004 0 L 0 0 L 0 1431 L 1004 1431 Z"/></clipPath><pattern id="SVG_DEF_7" width="100%" height="100%" ibooks:tintColor="rgba(255,249,232,0.310000)" ibooks:fillTechnique="tile"><image width="1536px" height="1988px" xlink:href="../images/Light-parchment-paper_a.jpg"/></pattern><pattern id="SVG_DEF_8" width="100%" height="100%" ibooks:fillTechnique="tile"><image width="1536px" height="1988px" xlink:href="../images/Light-parchment-paper_a.jpg"/></pattern><marker id="SVG_DEF_9" ibooks:markerId="filled arrow" markerUnits="strokeWidth" refX="3.000" refY="1.500" viewBox="0.000 0.000 6.000 6.000" preserveAspectRatio="none" markerWidth="6.000" markerHeight="6.000"><path d="M 0 0 L 3 6 L 6 0 L 3 1.5 Z"/></marker><marker id="SVG_DEF_10" ibooks:markerId="filled arrow" markerUnits="strokeWidth" refX="3.000" refY="1.500" viewBox="0.000 0.000 6.000 6.000" preserveAspectRatio="none" markerWidth="6.000" markerHeight="6.000"><path d="M 0 0 L 3 6 L 6 0 L 3 1.5 Z"/></marker><marker id="SVG_DEF_11" ibooks:markerId="filled arrow" markerUnits="strokeWidth" refX="3.000" refY="1.500" viewBox="0.000 0.000 6.000 6.000" preserveAspectRatio="none" markerWidth="6.000" markerHeight="6.000"><path d="M 0 0 L 3 6 L 6 0 L 3 1.5 Z"/></marker><marker id="SVG_DEF_12" ibooks:markerId="filled arrow" markerUnits="strokeWidth" refX="3.000" refY="1.500" viewBox="0.000 0.000 6.000 6.000" preserveAspectRatio="none" markerWidth="6.000" markerHeight="6.000"><path d="M 0 0 L 3 6 L 6 0 L 3 1.5 Z"/></marker></defs></svg>
